<svg width="84" height="84" viewBox="0 0 84 84" fill="none" xmlns="http://www.w3.org/2000/svg">
<path d="M41.9999 0C18.9 0 0 18.9337 0 42.253C0 63.3374 15.372 80.8373 35.448 84V54.4819H24.78V42.253H35.448V32.9337C35.448 22.3494 41.7059 16.5301 51.3239 16.5301C55.9019 16.5301 60.6899 17.3313 60.6899 17.3313V27.747H55.3979C50.1899 27.747 48.5519 30.994 48.5519 34.3253V42.253H60.2279L58.3379 54.4819H48.5519V84C58.449 82.4307 67.4612 77.3606 73.9616 69.7051C80.462 62.0495 84.0224 52.313 83.9999 42.253C83.9999 18.9337 65.0999 0 41.9999 0Z" fill="black"/>
</svg>
