<svg width="84" height="84" viewBox="0 0 84 84" fill="none" xmlns="http://www.w3.org/2000/svg">
<path d="M83.3529 38.22H43.7905V49.686H71.8767C70.453 65.688 56.7766 72.534 43.8336 72.534C27.3097 72.534 12.8136 59.85 12.8136 42C12.8136 24.78 26.6194 11.466 43.8767 11.466C57.208 11.466 65.017 19.74 65.017 19.74L73.2142 11.424C73.2142 11.424 62.6872 0 43.4453 0C18.9399 0 0 20.16 0 42C0 63.21 17.8182 84 44.0925 84C67.1741 84 84 68.586 84 45.822C84 40.992 83.3529 38.22 83.3529 38.22Z" fill="black"/>
</svg>
